<svg id="レイヤー_1" data-name="レイヤー 1" xmlns="http://www.w3.org/2000/svg" viewBox="0 0 503.72 121.59"><defs><style>.cls-1{fill:#231f20;}</style></defs><path class="cls-1" d="M209,339.38a10.51,10.51,0,0,0-8.45-4.18,10.27,10.27,0,0,0-4.1.81,9.79,9.79,0,0,0-3.24,2.18,10.06,10.06,0,0,0-2.14,3.3,10.79,10.79,0,0,0-.78,4.12,10.9,10.9,0,0,0,.78,4.17,10,10,0,0,0,5.41,5.53,10,10,0,0,0,4,.81,11.43,11.43,0,0,0,8.5-4v11.66l-1,.35a28.71,28.71,0,0,1-4.22,1.18,19.82,19.82,0,0,1-3.87.38,19.5,19.5,0,0,1-7.52-1.48A19.74,19.74,0,0,1,186,360a21.1,21.1,0,0,1-4.4-6.39,20.55,20.55,0,0,1,0-16.09,20,20,0,0,1,18.33-11.89,20.77,20.77,0,0,1,4.45.48,27.4,27.4,0,0,1,4.6,1.48Z" transform="translate(-177.59 -245.35)"/><path class="cls-1" d="M233.77,345.66a19.78,19.78,0,0,1,1.56-7.87,19.57,19.57,0,0,1,4.33-6.36,19.78,19.78,0,0,1,6.61-4.25,24.15,24.15,0,0,1,16.92,0,20.1,20.1,0,0,1,6.66,4.25,19.47,19.47,0,0,1,4.35,6.36,20.63,20.63,0,0,1,0,15.74,19.47,19.47,0,0,1-4.35,6.36,20,20,0,0,1-6.66,4.25,24.15,24.15,0,0,1-16.92,0,19.61,19.61,0,0,1-12.5-18.48m10.31,0a9.91,9.91,0,0,0,.86,4.17,10.53,10.53,0,0,0,2.31,3.32,10.41,10.41,0,0,0,3.39,2.19,11.17,11.17,0,0,0,8.2,0,10.76,10.76,0,0,0,3.42-2.19,10.3,10.3,0,0,0,2.34-3.32,10.65,10.65,0,0,0,0-8.34,10.3,10.3,0,0,0-2.34-3.32,10.76,10.76,0,0,0-3.42-2.19,11.17,11.17,0,0,0-8.2,0,10.41,10.41,0,0,0-3.39,2.19,10.53,10.53,0,0,0-2.31,3.32,9.91,9.91,0,0,0-.86,4.17" transform="translate(-177.59 -245.35)"/><polygon class="cls-1" points="132.8 81.36 132.8 110.92 144.62 110.92 144.62 119.27 122.94 119.27 122.94 81.36 132.8 81.36"/><polygon class="cls-1" points="179.24 81.36 179.24 110.92 191.06 110.92 191.06 119.27 169.39 119.27 169.39 81.36 179.24 81.36"/><polygon class="cls-1" points="237.4 89.71 225.69 89.71 225.69 96.04 236.75 96.04 236.75 104.39 225.69 104.39 225.69 110.92 237.4 110.92 240.57 119.27 215.83 119.27 215.83 81.36 240.57 81.36 237.4 89.71"/><path class="cls-1" d="M468.12,339.38a10.51,10.51,0,0,0-8.45-4.18,10.23,10.23,0,0,0-4.09.81,9.93,9.93,0,0,0-3.25,2.18,10.22,10.22,0,0,0-2.14,3.3,10.79,10.79,0,0,0-.77,4.12,10.9,10.9,0,0,0,.77,4.17,10.16,10.16,0,0,0,2.17,3.32,10.1,10.1,0,0,0,7.26,3,11.41,11.41,0,0,0,8.5-4v11.66l-1,.35a28,28,0,0,1-4.22,1.18,19.82,19.82,0,0,1-3.87.38A19.76,19.76,0,0,1,445.17,360a20.75,20.75,0,0,1-4.4-6.39,20.5,20.5,0,0,1,0-16.09,20,20,0,0,1,18.33-11.89,20.7,20.7,0,0,1,4.45.48,27.11,27.11,0,0,1,4.6,1.48Z" transform="translate(-177.59 -245.35)"/><polygon class="cls-1" points="332.06 89.71 332.06 119.27 322.21 119.27 322.21 89.71 314.11 89.71 314.11 81.36 340.16 81.36 340.16 89.71 332.06 89.71"/><rect class="cls-1" x="364.56" y="81.36" width="9.86" height="37.91"/><path class="cls-1" d="M575.45,345.66a19.78,19.78,0,0,1,1.56-7.87,19.57,19.57,0,0,1,4.33-6.36,19.78,19.78,0,0,1,6.61-4.25,24.15,24.15,0,0,1,16.92,0,20.1,20.1,0,0,1,6.66,4.25,19.47,19.47,0,0,1,4.35,6.36,20.63,20.63,0,0,1,0,15.74,19.47,19.47,0,0,1-4.35,6.36,20,20,0,0,1-6.66,4.25,24.15,24.15,0,0,1-16.92,0,19.61,19.61,0,0,1-12.5-18.48m10.31,0a10.07,10.07,0,0,0,.86,4.17,10.53,10.53,0,0,0,2.31,3.32,10.41,10.41,0,0,0,3.39,2.19,11.17,11.17,0,0,0,8.2,0,10.76,10.76,0,0,0,3.42-2.19,10.32,10.32,0,0,0,0-15,10.76,10.76,0,0,0-3.42-2.19,11.17,11.17,0,0,0-8.2,0,10.41,10.41,0,0,0-3.39,2.19,10.53,10.53,0,0,0-2.31,3.32,10.07,10.07,0,0,0-.86,4.17" transform="translate(-177.59 -245.35)"/><polygon class="cls-1" points="491.31 81.36 491.31 101.79 463.25 78.79 463.25 119.27 473.11 119.27 473.11 98.64 501.11 121.59 501.11 81.36 491.31 81.36"/><path class="cls-1" d="M298.71,247.91h14.58a17.24,17.24,0,0,1,7.27,1.56,19.87,19.87,0,0,1,5.93,4.15,19.53,19.53,0,0,1,4,6,18.67,18.67,0,0,1,0,14.38,19.24,19.24,0,0,1-4,6.06,19.57,19.57,0,0,1-5.93,4.17,17.36,17.36,0,0,1-7.32,1.56H298.71Zm9.85,29.57h2.27a12.13,12.13,0,0,0,4.57-.81,9.77,9.77,0,0,0,3.4-2.21,9.55,9.55,0,0,0,2.11-3.34,12.11,12.11,0,0,0,.73-4.25,11.67,11.67,0,0,0-.76-4.22,9.57,9.57,0,0,0-2.14-3.37,9.79,9.79,0,0,0-3.39-2.22,12.21,12.21,0,0,0-4.52-.8h-2.27Z" transform="translate(-177.59 -245.35)"/><polygon class="cls-1" points="86.54 2.56 86.54 23 58.49 0 58.49 40.48 68.34 40.48 68.34 19.84 96.35 42.8 96.35 2.56 86.54 2.56"/><path class="cls-1" d="M206.86,285.82h10.4l-19.83-40-19.84,40H188l1.89-3.67H205Zm-13.49-11,4.06-9,4,9Z" transform="translate(-177.59 -245.35)"/><polygon class="cls-1" points="304 30.94 300.22 30.94 300.22 32.99 303.79 32.99 303.79 35.68 300.22 35.68 300.22 37.79 304 37.79 305.02 40.48 297.04 40.48 297.04 28.25 305.02 28.25 304 30.94"/><polygon class="cls-1" points="268.88 28.25 268.88 34.84 259.83 27.43 259.83 40.48 263.01 40.48 263.01 33.82 272.04 41.23 272.04 28.25 268.88 28.25"/><path class="cls-1" d="M408.71,277.68a3.39,3.39,0,0,0-2.72-1.34,3.43,3.43,0,0,0-1.33.26,3.14,3.14,0,0,0-1.73,1.77,3.41,3.41,0,0,0-.25,1.32,3.49,3.49,0,0,0,.25,1.35,3.26,3.26,0,0,0,.7,1.07,3.15,3.15,0,0,0,1,.71,3.11,3.11,0,0,0,1.3.26,3.68,3.68,0,0,0,2.74-1.29v3.76l-.33.11A9.08,9.08,0,0,1,407,286a6.7,6.7,0,0,1-1.24.13,6.46,6.46,0,0,1-2.43-.48,6.37,6.37,0,0,1-2-1.35,6.82,6.82,0,0,1-1.42-2.06,6.21,6.21,0,0,1-.54-2.6,6.31,6.31,0,0,1,1.94-4.61,6.44,6.44,0,0,1,2-1.34,6.59,6.59,0,0,1,2.45-.47,6.9,6.9,0,0,1,1.44.15,8.18,8.18,0,0,1,1.48.48Z" transform="translate(-177.59 -245.35)"/><path class="cls-1" d="M416,279.71a6.31,6.31,0,0,1,1.9-4.59,6.35,6.35,0,0,1,2.13-1.37,7.82,7.82,0,0,1,5.45,0,6.32,6.32,0,0,1,3.56,3.42,6.7,6.7,0,0,1,0,5.08,6.36,6.36,0,0,1-1.41,2.05,6.44,6.44,0,0,1-2.15,1.37,7.82,7.82,0,0,1-5.45,0,6.31,6.31,0,0,1-3.53-3.42,6.5,6.5,0,0,1-.5-2.54m3.32,0a3.37,3.37,0,0,0,1,2.42,3.34,3.34,0,0,0,1.09.7,3.48,3.48,0,0,0,1.32.25,3.41,3.41,0,0,0,1.32-.25,3.5,3.5,0,0,0,1.1-.7,3.3,3.3,0,0,0,.76-1.08,3.24,3.24,0,0,0,.28-1.34,3.28,3.28,0,0,0-.28-1.34,3.16,3.16,0,0,0-.76-1.07,3.36,3.36,0,0,0-1.1-.71,3.41,3.41,0,0,0-1.32-.25,3.48,3.48,0,0,0-1.32.25,3.21,3.21,0,0,0-1.09.71,3.14,3.14,0,0,0-.75,1.07,3.28,3.28,0,0,0-.28,1.34" transform="translate(-177.59 -245.35)"/><polygon class="cls-1" points="286.13 30.94 286.13 40.48 282.95 40.48 282.95 30.94 280.34 30.94 280.34 28.25 288.74 28.25 288.74 30.94 286.13 30.94"/><polygon class="cls-1" points="312.64 40.48 314.71 28.25 317.86 28.25 320.31 34.77 322.74 28.25 325.89 28.25 327.96 40.48 324.8 40.48 323.75 33.44 320.86 40.48 319.6 40.48 316.86 33.44 315.8 40.48 312.64 40.48"/><path class="cls-1" d="M517.62,285.82h-3.17V273.6h5a4.3,4.3,0,0,1,3.16,1.07,4.71,4.71,0,0,1,0,6,4.35,4.35,0,0,1-3.16,1.07h-1.88Zm0-6.61h1.06c1.17,0,1.75-.51,1.75-1.52s-.58-1.53-1.75-1.53h-1.06Z" transform="translate(-177.59 -245.35)"/><path class="cls-1" d="M530.75,279.71a6.5,6.5,0,0,1,.5-2.54,6.61,6.61,0,0,1,1.4-2.05,6.45,6.45,0,0,1,2.13-1.37,7.85,7.85,0,0,1,5.46,0,6.54,6.54,0,0,1,2.15,1.37,6.61,6.61,0,0,1,1.4,2.05,6.36,6.36,0,0,1-3.55,8.5,7.85,7.85,0,0,1-5.46,0,6.31,6.31,0,0,1-4-6m3.33,0a3.24,3.24,0,0,0,.27,1.34,3.43,3.43,0,0,0,.75,1.08,3.34,3.34,0,0,0,1.09.7,3.64,3.64,0,0,0,2.65,0,3.62,3.62,0,0,0,1.1-.7,3.28,3.28,0,0,0,.75-1.08,3.09,3.09,0,0,0,.28-1.34,3.32,3.32,0,0,0-1-2.41,3.57,3.57,0,0,0-3.75-.71,3.21,3.21,0,0,0-1.09.71,3.26,3.26,0,0,0-1,2.41" transform="translate(-177.59 -245.35)"/><path class="cls-1" d="M562.31,285.82h-4l-3-4.7v4.7h-3.18V273.6h5a4.84,4.84,0,0,1,1.78.3,3.4,3.4,0,0,1,1.26.82,3.23,3.23,0,0,1,.74,1.2,4.11,4.11,0,0,1,.26,1.46,3.58,3.58,0,0,1-.68,2.26,3.32,3.32,0,0,1-2,1.17Zm-7-6.76h.6a2.34,2.34,0,0,0,1.45-.39,1.34,1.34,0,0,0,.5-1.12,1.37,1.37,0,0,0-.5-1.12,2.41,2.41,0,0,0-1.45-.38h-.6Z" transform="translate(-177.59 -245.35)"/><path class="cls-1" d="M599,285.82h-4l-3-4.7v4.7H588.8V273.6h4.94a4.81,4.81,0,0,1,1.78.3,3.38,3.38,0,0,1,2,2,4.34,4.34,0,0,1,.25,1.46,3.64,3.64,0,0,1-.67,2.26,3.38,3.38,0,0,1-2,1.17Zm-7-6.76h.6a2.34,2.34,0,0,0,1.45-.39,1.34,1.34,0,0,0,.5-1.12,1.37,1.37,0,0,0-.5-1.12,2.41,2.41,0,0,0-1.45-.38H592Z" transform="translate(-177.59 -245.35)"/><polygon class="cls-1" points="432.05 34.61 427.59 28.25 431.38 28.25 433.65 31.59 435.9 28.25 439.7 28.25 435.22 34.61 435.22 40.48 432.05 40.48 432.05 34.61"/><path class="cls-1" d="M665.85,285.82h-4l-3-4.7v4.7h-3.17V273.6h4.94a4.81,4.81,0,0,1,1.78.3,3.38,3.38,0,0,1,2,2,4.34,4.34,0,0,1,.25,1.46,3.64,3.64,0,0,1-.67,2.26,3.38,3.38,0,0,1-2,1.17Zm-7-6.76h.6a2.34,2.34,0,0,0,1.45-.39,1.34,1.34,0,0,0,.5-1.12,1.37,1.37,0,0,0-.5-1.12,2.41,2.41,0,0,0-1.45-.38h-.6Z" transform="translate(-177.59 -245.35)"/><polygon class="cls-1" points="501.11 30.94 501.11 40.48 497.94 40.48 497.94 30.94 495.32 30.94 495.32 28.25 503.72 28.25 503.72 30.94 501.11 30.94"/><path class="cls-1" d="M578.26,285.82h3.35l-6.39-12.89-6.39,12.89h3.35l.61-1.18h4.86Zm-4.35-3.55,1.31-2.89,1.31,2.89Z" transform="translate(-177.59 -245.35)"/><path class="cls-1" d="M645.15,285.82h3.35l-6.39-12.89-6.39,12.89h3.35l.61-1.18h4.86Zm-4.34-3.55,1.3-2.89,1.31,2.89Z" transform="translate(-177.59 -245.35)"/></svg>