<svg xmlns="http://www.w3.org/2000/svg" width="37" height="32" viewBox="0 0 37 32">
  <metadata><?xpacket begin="﻿" id="W5M0MpCehiHzreSzNTczkc9d"?>
<x:xmpmeta xmlns:x="adobe:ns:meta/" x:xmptk="Adobe XMP Core 5.6-c138 79.159824, 2016/09/14-01:09:01        ">
   <rdf:RDF xmlns:rdf="http://www.w3.org/1999/02/22-rdf-syntax-ns#">
      <rdf:Description rdf:about=""/>
   </rdf:RDF>
</x:xmpmeta>
                                                                                                    
                                                                                                    
                                                                                                    
                                                                                                    
                                                                                                    
                                                                                                    
                                                                                                    
                                                                                                    
                                                                                                    
                                                                                                    
                                                                                                    
                                                                                                    
                                                                                                    
                                                                                                    
                                                                                                    
                                                                                                    
                                                                                                    
                                                                                                    
                                                                                                    
                                                                                                    
                           
<?xpacket end="w"?></metadata>
<defs>
    <style>
      .cls-1 {
        fill-rule: evenodd;
      }
    </style>
  </defs>
  <path id="logo-and" class="cls-1" d="M338.452,47.69a11.5,11.5,0,0,1-.792,1.642,4.134,4.134,0,0,1-.834.992,2.085,2.085,0,0,1-1.379.431,2.467,2.467,0,0,1-1.61-.473,5.406,5.406,0,0,1-.8-0.776l-2.643-3.494a8.78,8.78,0,0,0,1.408-2.22,15.269,15.269,0,0,0,.862-2.5,20.686,20.686,0,0,0,.46-2.457c0.1-.791.161-1.473,0.2-2.048a16.229,16.229,0,0,1,.374-2.867,3.25,3.25,0,0,1,.8-1.552,2.832,2.832,0,0,1,1.408-.733c0.068-.016.144-0.031,0.216-0.045a20.939,20.939,0,0,1,2.412-.247,0.3,0.3,0,0,0,.009-0.147l-0.022-.573c-1.019.049-1.336,0.028-1.986,0.042H326.482v0.6a14.006,14.006,0,0,1,2.615.216,4.193,4.193,0,0,1,1.869.818,3.647,3.647,0,0,1,1.12,1.7,9.314,9.314,0,0,1,.374,2.911,14.576,14.576,0,0,1-.863,5.41,10.13,10.13,0,0,1-1.668,3l-9.654-14.186a10.445,10.445,0,0,0,4.053-3,5.031,5.031,0,0,0,.948-2.737,4.453,4.453,0,0,0-.432-2.048A3.651,3.651,0,0,0,323.667,22a5.136,5.136,0,0,0-1.725-.754A8.737,8.737,0,0,0,319.874,21a8.93,8.93,0,0,0-3.161.582,9.951,9.951,0,0,0-2.759,1.553,7.977,7.977,0,0,0-1.924,2.2,4.991,4.991,0,0,0-.719,2.565,5.7,5.7,0,0,0,.46,2.221q0.458,1.1,1.379,2.91-1.84.864-3.793,1.876a23.532,23.532,0,0,0-3.593,2.286,12.436,12.436,0,0,0-2.7,2.846A6.193,6.193,0,0,0,302,43.6a8.645,8.645,0,0,0,.546,2.716,7.981,7.981,0,0,0,2.068,3.083,12.486,12.486,0,0,0,4.223,2.544A19.743,19.743,0,0,0,315.908,53a21.127,21.127,0,0,0,3.218-.215,16.02,16.02,0,0,0,2.443-.562,11.194,11.194,0,0,0,1.9-.8q0.833-.453,1.7-0.97a10.513,10.513,0,0,0,2.414,1.789,8.265,8.265,0,0,0,3.907.755,9.382,9.382,0,0,0,4.282-.8,6.329,6.329,0,0,0,2.241-1.789,5.736,5.736,0,0,0,.909-1.83c0.023-.084.043-0.221,0.065-0.308L339,48.2C338.764,48.013,338.67,47.866,338.452,47.69ZM317.46,22.879a3.122,3.122,0,0,1,1.178-.9,3.967,3.967,0,0,1,1.264-.323c0.4-.029.661-0.044,0.776-0.044a4.027,4.027,0,0,1,1.753.345,3.43,3.43,0,0,1,1.178.905,3.943,3.943,0,0,1,.69,1.251,4.412,4.412,0,0,1,.23,1.38,3.629,3.629,0,0,1-.49,1.9,5.918,5.918,0,0,1-1.2,1.445,8.341,8.341,0,0,1-1.523,1.055c-0.538.289-1,.532-1.38,0.734-0.345-.432-0.7-0.913-1.062-1.446a17.3,17.3,0,0,1-.978-1.594,10.266,10.266,0,0,1-.69-1.552,4.319,4.319,0,0,1-.258-1.4A2.665,2.665,0,0,1,317.46,22.879Zm4.684,28.458a6.89,6.89,0,0,1-2.787.539,5.667,5.667,0,0,1-2.73-.732,11.487,11.487,0,0,1-2.529-1.877,18.067,18.067,0,0,1-2.184-2.565,22.455,22.455,0,0,1-1.724-2.845,18.111,18.111,0,0,1-1.121-2.7,7.188,7.188,0,0,1-.4-2.048,5,5,0,0,1,.287-1.79,4.084,4.084,0,0,1,.89-1.379,7.95,7.95,0,0,1,1.494-1.186q0.89-.56,2.1-1.251a8.214,8.214,0,0,1,.517.8q0.345,0.583.747,1.186l8.621,12.547a9.047,9.047,0,0,0,.6.884,13.1,13.1,0,0,0,.891,1.014A23.342,23.342,0,0,1,322.144,51.337Z" transform="translate(-302 -21)"/>
</svg>
