<?xml version="1.0" standalone="no"?>
<!DOCTYPE svg PUBLIC "-//W3C//DTD SVG 20010904//EN"
 "http://www.w3.org/TR/2001/REC-SVG-20010904/DTD/svg10.dtd">
<svg version="1.0" xmlns="http://www.w3.org/2000/svg"
 width="500.000000pt" height="500.000000pt" viewBox="0 0 500.000000 500.000000"
 preserveAspectRatio="xMidYMid meet">
<metadata>
Created by potrace 1.11, written by Peter Selinger 2001-2013
</metadata>
<g transform="translate(0.000000,500.000000) scale(0.100000,-0.100000)"
fill="#000000" stroke="none">
<path d="M2285 4330 c-225 -35 -465 -159 -621 -322 -126 -131 -185 -245 -203
-389 -18 -141 9 -247 125 -488 41 -85 74 -155 74 -157 0 -1 -114 -59 -252
-128 -448 -223 -687 -394 -849 -609 -163 -215 -204 -427 -134 -687 117 -434
550 -744 1155 -827 161 -21 590 -24 730 -4 230 32 431 100 620 208 l105 60 70
-57 c146 -119 259 -178 395 -207 106 -22 407 -25 519 -4 286 52 510 229 582
461 l20 64 -30 30 c-17 16 -32 28 -33 25 -2 -2 -24 -47 -49 -99 -53 -108 -124
-194 -184 -221 -28 -13 -64 -19 -120 -19 -146 0 -188 34 -411 327 -85 111
-154 204 -154 207 0 3 22 35 50 71 134 178 236 502 270 860 6 66 16 170 21
230 27 276 80 390 213 451 47 21 208 49 326 56 45 3 45 3 45 41 0 20 -3 37 -7
37 -5 0 -314 0 -688 0 l-680 0 0 -33 0 -34 123 -6 c319 -16 465 -116 532 -362
23 -83 31 -358 15 -511 -16 -156 -56 -313 -116 -449 -46 -106 -138 -256 -159
-261 -7 -2 -781 1120 -1093 1584 -12 18 -7 23 74 66 324 172 484 375 484 613
0 236 -134 401 -377 464 -90 23 -294 33 -388 19z m370 -76 c163 -42 282 -182
304 -359 30 -245 -99 -427 -426 -600 l-92 -49 -21 25 c-51 59 -203 296 -238
371 -66 138 -77 182 -77 293 0 85 3 106 23 143 47 89 140 154 252 178 79 17
206 17 275 -2z m-878 -1459 c101 -160 1071 -1565 1149 -1664 79 -100 91 -81
-117 -185 -188 -94 -254 -111 -429 -111 -123 1 -142 3 -210 29 -203 76 -408
243 -597 486 -191 245 -360 588 -409 832 -41 201 28 391 186 515 78 62 343
223 351 215 4 -4 38 -56 76 -117z"/>
</g>
</svg>
